<svg width="500" height="500" viewBox="0 0 500 500" fill="none" xmlns="http://www.w3.org/2000/svg">
<rect width="500" height="500" fill="#111111"/>
<path d="M140.383 370.731C140.259 370.607 140.158 367.333 140.158 363.454V356.403H143.385C147.003 356.403 148.457 356.841 149.581 358.269C150.401 359.311 150.554 361.262 149.924 362.644C149.285 364.045 148.003 364.648 145.236 364.849L142.697 365.034L142.599 367.995L142.501 370.957H141.555C141.035 370.957 140.507 370.856 140.383 370.731ZM147.262 362.331C148.095 361.577 148.157 359.907 147.384 359.053C146.954 358.577 146.327 358.434 144.676 358.434H142.527V360.577C142.527 361.756 142.642 362.837 142.781 362.979C143.247 363.453 146.551 362.975 147.262 362.331ZM152.708 370.534C152.721 370.301 153.835 367.065 155.183 363.341L157.635 356.572L159.011 356.47C160.08 356.391 160.441 356.504 160.631 356.978C161.144 358.255 165.55 370.655 165.55 370.822C165.55 370.919 164.991 370.951 164.307 370.893C163.174 370.797 163.021 370.659 162.582 369.337L162.1 367.886L159.028 367.983L155.956 368.08L155.477 369.519C155.038 370.837 154.902 370.957 153.841 370.957C153.129 370.957 152.694 370.795 152.708 370.534ZM160.436 363.088C159.884 361.552 159.347 360.067 159.243 359.787C159.135 359.5 158.559 360.673 157.912 362.495C157.284 364.264 156.766 365.749 156.759 365.795C156.753 365.842 157.803 365.88 159.094 365.88H161.44L160.436 363.088ZM168.598 363.68V356.403H169.779C170.929 356.403 171.059 356.549 174.519 361.732L178.078 367.061V361.732V356.403H179.263H180.448V363.68V370.957H179.312C178.221 370.957 178.036 370.746 174.656 365.656L171.137 360.355L171.044 365.656L170.95 370.957H169.774H168.598V363.68ZM190.52 370.771C190.38 370.625 190.266 367.333 190.266 363.454V356.403L193.398 356.405C197.48 356.407 198.911 356.833 200.637 358.559C202.722 360.643 203.228 362.941 202.293 366.086C201.723 368.006 200.516 369.317 198.57 370.129C197.132 370.73 190.953 371.222 190.52 370.771ZM198.205 368.123C199.444 367.311 200.212 365.614 200.215 363.68C200.22 360.222 198.37 358.434 194.787 358.434H192.636V363.725V369.017L194.995 368.849C196.351 368.752 197.716 368.443 198.205 368.123ZM205.84 363.68V356.403H209.734H213.628V357.418V358.434H210.919H208.21V360.45V362.466L210.665 362.565C213.031 362.661 213.12 362.695 213.12 363.511C213.12 364.326 213.031 364.36 210.665 364.456L208.21 364.556V366.741V368.926H210.919H213.628V369.942V370.957H209.734H205.84V363.68ZM223.446 363.68V356.403H224.75H226.053L228.525 361.988C229.884 365.059 231.032 367.572 231.077 367.572C231.121 367.572 232.272 365.059 233.634 361.988L236.111 356.403H237.396H238.682V363.68V370.957H237.506H236.331L236.237 366.134L236.143 361.311L233.981 366.134C232.136 370.25 231.708 370.957 231.064 370.957C230.42 370.957 229.992 370.25 228.147 366.134L225.985 361.311L225.891 366.134L225.798 370.957H224.622H223.446L223.446 363.68ZM241.737 370.703C241.741 370.564 242.865 367.327 244.235 363.511L246.726 356.572H248.17H249.613L252.104 363.509C253.474 367.324 254.595 370.561 254.595 370.701C254.595 370.842 254.082 370.957 253.456 370.957C252.418 370.957 252.265 370.822 251.735 369.434L251.153 367.911H248.162H245.171L244.589 369.434C244.059 370.822 243.906 370.957 242.868 370.957C242.242 370.957 241.733 370.843 241.737 370.703ZM249.443 362.834C248.86 361.158 248.293 359.787 248.182 359.787C248.071 359.787 247.494 361.158 246.899 362.834L245.818 365.88H248.161H250.503L249.443 362.834ZM259.843 370.482C258.565 369.918 257.761 369.021 257.462 367.826C257.237 366.924 257.273 366.895 258.621 366.895C259.607 366.895 260.012 367.038 260.012 367.384C260.012 368.106 261.368 368.926 262.563 368.926C263.762 368.926 265.091 367.859 265.091 366.895C265.091 366.021 263.883 364.949 262.59 364.675C260.428 364.218 258.289 363.081 257.795 362.125C256.005 358.665 259.589 355.286 263.836 356.429C265.417 356.855 267.122 358.408 267.122 359.423C267.122 360.014 266.913 360.126 265.807 360.126C264.78 360.126 264.454 359.979 264.316 359.453C264.1 358.626 262.623 358.022 261.504 358.302C260.65 358.517 259.673 359.613 259.673 360.357C259.673 361.097 261.04 362.08 262.625 362.479C265.171 363.12 266.668 364.047 267.085 365.241C267.584 366.674 267.561 367.089 266.906 368.469C265.892 370.605 262.385 371.604 259.843 370.482ZM270.169 370.701C270.169 370.561 271.29 367.324 272.66 363.509L275.151 356.572H276.594H278.038L280.529 363.511C281.899 367.327 283.023 370.564 283.027 370.703C283.031 370.843 282.514 370.957 281.878 370.957C280.817 370.957 280.672 370.829 280.134 369.422L279.548 367.887L276.494 367.983L273.44 368.08L272.962 369.519C272.523 370.837 272.386 370.957 271.326 370.957C270.69 370.957 270.169 370.842 270.169 370.701ZM277.865 362.834C277.27 361.158 276.693 359.787 276.582 359.787C276.471 359.787 275.904 361.158 275.321 362.834L274.261 365.88H276.603H278.946L277.865 362.834ZM292.176 363.68V356.403H293.48H294.783L297.255 361.988C298.614 365.059 299.757 367.572 299.794 367.572C299.832 367.572 300.983 365.059 302.354 361.988L304.846 356.403H306.129H307.412V363.68V370.957H306.236H305.061L304.967 366.134L304.873 361.311L302.711 366.134C300.866 370.25 300.438 370.957 299.794 370.957C299.15 370.957 298.723 370.25 296.878 366.134L294.716 361.311L294.622 366.134L294.528 370.957H293.352H292.176L292.176 363.68ZM310.467 370.703C310.471 370.564 311.595 367.327 312.965 363.511L315.456 356.572H316.9H318.343L320.834 363.509C322.204 367.324 323.325 370.561 323.325 370.701C323.325 370.842 322.812 370.957 322.186 370.957C321.148 370.957 320.995 370.822 320.465 369.434L319.883 367.911H316.892H313.901L313.319 369.434C312.789 370.822 312.636 370.957 311.598 370.957C310.972 370.957 310.463 370.843 310.467 370.703ZM318.155 362.834C317.56 361.158 316.992 359.787 316.892 359.787C316.792 359.787 316.224 361.158 315.629 362.834L314.548 365.88H316.892H319.236L318.155 362.834ZM326.372 363.68V356.403H329.528C333.412 356.403 335.439 357.028 336.88 358.669C338.279 360.261 338.626 361.256 338.637 363.695C338.658 368.656 335.507 370.957 328.696 370.957H326.372V363.68ZM333.714 368.269C335.507 367.454 336.191 366.168 336.189 363.612C336.189 360.069 334.482 358.434 330.79 358.434H328.742V363.68V368.926L330.52 368.919C331.528 368.915 332.91 368.633 333.714 368.269ZM341.946 363.701V356.403H345.004C348.444 356.403 349.923 356.861 351.031 358.269C352.45 360.073 351.746 363.316 349.707 364.371L348.675 364.904L349.671 366.661C350.218 367.628 351.004 368.99 351.418 369.688L352.17 370.957H350.795C349.432 370.957 349.406 370.934 347.774 368.165C346.451 365.92 345.953 365.352 345.236 365.267L344.345 365.161L344.246 367.974L344.148 370.788L343.047 370.894L341.947 371L341.946 363.701ZM348.718 362.495C349.546 361.668 349.606 359.904 348.835 359.053C348.413 358.587 347.783 358.434 346.295 358.434H344.316V360.803V363.172H346.179C347.589 363.172 348.205 363.008 348.718 362.495ZM355.715 370.731C355.591 370.607 355.489 367.333 355.489 363.454V356.403H359.552H363.615V357.418V358.434H360.737H357.859V360.464V362.495H360.399H362.938V363.511V364.526H360.382H357.827L357.927 366.642L358.028 368.757L360.821 368.855L363.614 368.954V369.955V370.957H359.777C357.667 370.957 355.839 370.856 355.715 370.731ZM188.404 335.391C171.999 333.753 158.109 322.581 153.248 307.112C151.683 302.132 151.199 298.784 151.199 292.939C151.199 283.09 153.584 275.098 158.754 267.622C169.94 251.445 192.64 245.643 211.427 254.159C219.055 257.617 226.61 264.943 230.474 272.63C231.868 275.404 233.397 279.835 234.154 283.292C235.054 287.408 235.054 298.47 234.154 302.585C232.274 311.179 228.378 318.31 222.433 324.039C213.562 332.589 201.304 336.678 188.404 335.391ZM200.085 325.383C205.188 324.37 210.383 321.634 214.131 317.986C220.679 311.613 223.785 303.501 223.785 292.77C223.785 283.99 221.54 276.87 216.852 270.779C210.811 262.931 200.287 258.761 189.512 259.946C181.755 260.799 175.856 263.706 170.766 269.182C166.939 273.299 164.317 278.429 163.158 284.068C160.418 297.396 163.776 310.157 172.106 318.067C177.061 322.773 182.764 325.242 190.605 326.077C192.519 326.28 197.346 325.927 200.085 325.383ZM276.771 335.382C271.612 334.915 266.464 333.326 262.471 330.968C260.077 329.554 255.816 325.386 254.144 322.822C252.457 320.237 250.982 316.693 250.109 313.13C249.41 310.281 249.387 309.395 249.269 280.669L249.147 251.137H254.56H259.974L260.092 280.161C260.209 308.938 260.216 309.209 260.962 311.893C261.986 315.576 263.136 317.814 265.12 319.984C268.702 323.903 272.882 325.589 279.649 325.844C284.74 326.037 287.838 325.486 291.334 323.766C295.782 321.578 298.84 317.66 300.386 312.169C301.123 309.552 301.132 309.218 301.239 280.331L301.346 251.137H306.749H312.152V279.51C312.152 304.051 312.078 308.312 311.607 311.072C309.434 323.783 301.204 332.26 288.621 334.747C284.747 335.513 280.647 335.733 276.771 335.382ZM81.5846 292.957V251.137L97.4128 251.141C113.814 251.144 117.59 251.356 121.855 252.517C130.036 254.743 136.08 260.667 137.63 267.978C139.629 277.408 135.57 285.904 127.032 290.161L123.895 291.726L125.331 292.112C131.623 293.806 137.478 300.025 139.331 306.986C140.089 309.829 140.11 314.921 139.376 317.717C138.371 321.549 136.836 324.189 133.897 327.141C131.683 329.364 130.595 330.155 127.969 331.448C121.76 334.504 121.671 334.514 100.291 334.655L81.5846 334.778V292.957ZM114.347 325.618C118.39 325.227 121.385 324.215 123.839 322.409C127.562 319.669 129.152 315.92 128.927 310.409C128.813 307.628 128.639 306.824 127.726 304.879C125.923 301.036 122.389 298.308 117.473 296.963C115.575 296.444 113.712 296.359 103.93 296.342L92.5881 296.324L92.4998 310.709C92.4512 318.621 92.4844 325.284 92.5738 325.517C92.7703 326.029 109.307 326.106 114.347 325.618ZM116.965 286.611C123.028 284.787 126.461 280.722 126.859 274.897C127.361 267.548 123.387 262.294 116.168 260.765C114.507 260.413 111.102 260.286 103.168 260.282L92.4189 260.276V273.842V287.408L103.846 287.264C112.714 287.153 115.652 287.007 116.965 286.611ZM330.435 292.939V251.137H335.852H341.269V288.539V325.94H355.997H370.725V330.34V334.74H350.58H330.435V292.939ZM382.236 292.939V251.137H404.751H427.266V255.534V259.931L410.253 260.019L393.24 260.107L393.151 274.069L393.062 288.031H408.302H423.541V292.6V297.17H408.302H393.062L393.15 311.47L393.239 325.771L410.252 325.859L427.266 325.947V330.344V334.741H404.751H382.236L382.236 292.939ZM47.2336 238.367C44.7279 237.731 43.3384 234.919 44.3135 232.459C45.1679 230.303 56.6071 217.855 65.841 209.034C80.2488 195.269 89.3004 187.441 100.714 178.873C121.529 163.246 137.358 154.933 164.456 145.394C191.333 135.933 210.988 131.241 232.588 129.13C291.682 123.353 351.179 139.854 400.666 175.745C414.523 185.795 432.569 202.317 442.371 213.93C449.243 222.072 455.657 231.336 455.954 233.549C456.315 236.238 454.505 238.355 451.796 238.413C449.695 238.458 448.881 237.694 445.211 232.226C437.061 220.084 425.13 207.29 409.422 193.847C394.871 181.394 378.144 170.397 360.399 161.616C353.198 158.054 344.019 153.995 343.162 153.995C342.661 153.995 339.764 157.161 336.967 160.765C333.942 164.661 330.83 169.71 328.594 174.348C324.689 182.447 322.782 189.557 322.338 197.666C322.059 202.759 321.731 203.644 319.784 204.568C318.383 205.232 317.541 205.243 316.042 204.618C314.084 203.799 313.509 202.424 313.508 198.548C313.502 184.501 320.327 167.349 331.314 153.795L334.112 150.344L328.295 148.457C317.872 145.077 310.554 143.161 300.313 141.13C271.421 135.402 240.733 135.329 212.219 140.919L207.933 141.76L204.77 144.095C186.17 157.828 175.767 172.283 172.311 189.197C171.912 191.151 171.509 194.578 171.417 196.812C171.219 201.573 170.952 202.638 169.643 203.892C167.713 205.741 164.584 205.297 163.167 202.973C162.333 201.606 162.273 197.404 163.008 191.837C164.98 176.903 171.246 164.306 183.153 151.336L186.874 147.282L184.084 148.134C162.159 154.825 142.032 163.037 128.293 170.896C116.676 177.541 101.533 188.653 88.1879 200.324C76.545 210.506 62.0394 224.802 54.795 233.233C50.4965 238.235 49.4671 238.934 47.2336 238.367Z" fill="white"/>
</svg>
