<svg width="500" height="500" viewBox="0 0 500 500" fill="none" xmlns="http://www.w3.org/2000/svg">
<rect width="500" height="500" rx="250" fill="#111111"/>
<path d="M191.483 303.071C175.978 301.523 162.85 290.961 158.255 276.336C156.776 271.628 156.319 268.462 156.319 262.936C156.319 253.625 158.572 246.07 163.459 239.001C174.032 223.707 195.486 218.222 213.243 226.273C220.452 229.542 227.593 236.469 231.245 243.736C232.563 246.359 234.008 250.548 234.723 253.816C235.574 257.707 235.574 268.166 234.723 272.056C232.946 280.181 229.264 286.923 223.646 292.339C215.261 300.422 203.675 304.288 191.483 303.071ZM202.523 293.61C207.346 292.652 212.256 290.065 215.799 286.616C221.988 280.591 224.923 272.922 224.923 262.776C224.923 254.476 222.801 247.745 218.37 241.986C212.661 234.566 202.714 230.624 192.53 231.744C185.198 232.551 179.623 235.299 174.812 240.476C171.196 244.369 168.717 249.219 167.622 254.549C165.032 267.151 168.206 279.215 176.079 286.693C180.763 291.142 186.153 293.477 193.563 294.266C195.372 294.458 199.934 294.125 202.523 293.61ZM275.003 303.063C270.127 302.622 265.261 301.119 261.487 298.89C259.225 297.553 255.197 293.613 253.617 291.188C252.023 288.744 250.628 285.394 249.803 282.025C249.143 279.332 249.121 278.495 249.009 251.336L248.893 223.416H254.01H259.127L259.238 250.856C259.349 278.063 259.356 278.318 260.061 280.856C261.028 284.339 262.115 286.454 263.99 288.506C267.376 292.21 271.327 293.804 277.723 294.046C282.534 294.228 285.463 293.707 288.766 292.081C292.971 290.012 295.861 286.308 297.323 281.117C298.019 278.643 298.028 278.327 298.128 251.016L298.23 223.416H303.336H308.443V250.24C308.443 273.442 308.373 277.471 307.927 280.08C305.874 292.097 298.096 300.111 286.203 302.463C282.541 303.187 278.666 303.395 275.003 303.063ZM90.5229 262.954V223.416L105.483 223.419C120.984 223.422 124.553 223.623 128.585 224.721C136.317 226.825 142.029 232.426 143.494 239.338C145.384 248.253 141.547 256.286 133.478 260.311L130.513 261.789L131.87 262.155C137.817 263.756 143.35 269.636 145.102 276.217C145.818 278.905 145.838 283.719 145.144 286.362C144.194 289.985 142.743 292.48 139.966 295.272C137.873 297.374 136.845 298.122 134.363 299.344C128.494 302.233 128.41 302.243 108.203 302.375L90.5229 302.492V262.954ZM121.488 293.832C125.31 293.462 128.14 292.505 130.459 290.798C133.979 288.207 135.481 284.663 135.268 279.453C135.161 276.824 134.996 276.063 134.133 274.225C132.43 270.592 129.089 268.013 124.443 266.741C122.649 266.25 120.888 266.17 111.643 266.154L100.923 266.137L100.839 279.736C100.793 287.216 100.825 293.516 100.909 293.736C101.095 294.22 116.724 294.293 121.488 293.832ZM123.963 256.954C129.693 255.23 132.938 251.387 133.314 245.879C133.789 238.931 130.032 233.964 123.209 232.518C121.64 232.186 118.422 232.066 110.923 232.062L100.763 232.056V244.882V257.708L111.563 257.572C119.945 257.466 122.721 257.328 123.963 256.954ZM325.723 262.936V223.416H330.843H335.963V258.776V294.136H349.883H363.803V298.296V302.456H344.763H325.723V262.936ZM374.683 262.936V223.416H395.963H417.243V227.574V231.731L401.163 231.814L385.083 231.897L384.999 245.097L384.915 258.297H399.318H413.722V262.617V266.937H399.318H384.915L384.998 280.457L385.082 293.977L401.162 294.06L417.242 294.143V298.3V302.457H395.962H374.682L374.683 262.936ZM58.0562 211.343C55.6879 210.741 54.3747 208.084 55.2963 205.757C56.1038 203.719 66.9156 191.951 75.6429 183.611C89.2604 170.598 97.8155 163.197 108.603 155.096C128.276 140.322 143.236 132.463 168.849 123.445C194.252 114.5 212.828 110.064 233.243 108.068C289.096 102.607 345.329 118.207 392.102 152.139C405.198 161.64 422.254 177.261 431.518 188.24C438.014 195.937 444.076 204.696 444.357 206.788C444.698 209.33 442.987 211.331 440.427 211.387C438.441 211.43 437.672 210.707 434.203 205.538C426.5 194.058 415.224 181.963 400.377 169.253C386.624 157.48 370.815 147.083 354.043 138.782C347.237 135.413 338.562 131.576 337.751 131.576C337.279 131.576 334.54 134.57 331.897 137.976C329.038 141.66 326.097 146.433 323.983 150.818C320.292 158.475 318.489 165.197 318.07 172.864C317.806 177.679 317.497 178.515 315.656 179.389C314.332 180.017 313.536 180.027 312.12 179.436C310.268 178.662 309.725 177.362 309.724 173.698C309.719 160.417 316.169 144.202 326.554 131.387L329.198 128.124L323.701 126.341C313.849 123.145 306.932 121.333 297.254 119.414C269.946 113.998 240.941 113.929 213.992 119.214L209.94 120.009L206.952 122.216C189.372 135.2 179.539 148.866 176.273 164.856C175.895 166.704 175.515 169.944 175.427 172.056C175.241 176.557 174.988 177.564 173.751 178.749C171.926 180.498 168.97 180.078 167.63 177.881C166.842 176.589 166.786 172.616 167.48 167.353C169.344 153.234 175.266 141.324 186.52 129.063L190.037 125.23L187.4 126.035C166.678 132.361 147.655 140.124 134.669 147.555C123.689 153.837 109.377 164.342 96.764 175.377C85.7598 185.003 72.0498 198.518 65.2028 206.489C61.1402 211.218 60.1672 211.879 58.0562 211.343Z" fill="white"/>
<path d="M100.919 345.731C100.919 347.645 100.259 349.24 98.939 350.516C97.641 351.77 95.65 352.397 92.966 352.397H88.544V362H85.541V338.999H92.966C95.562 338.999 97.531 339.626 98.873 340.88C100.237 342.134 100.919 343.751 100.919 345.731ZM92.966 349.922C94.638 349.922 95.87 349.559 96.662 348.833C97.454 348.107 97.85 347.073 97.85 345.731C97.85 342.893 96.222 341.474 92.966 341.474H88.544V349.922H92.966ZM118.247 356.885H108.215L106.367 362H103.199L111.515 339.131H114.98L123.263 362H120.095L118.247 356.885ZM117.389 354.443L113.231 342.827L109.073 354.443H117.389ZM144.972 362H141.969L129.891 343.685V362H126.888V338.966H129.891L141.969 357.248V338.966H144.972V362ZM166.05 338.999C168.558 338.999 170.725 339.472 172.551 340.418C174.399 341.342 175.807 342.673 176.775 344.411C177.765 346.149 178.26 348.195 178.26 350.549C178.26 352.903 177.765 354.949 176.775 356.687C175.807 358.403 174.399 359.723 172.551 360.647C170.725 361.549 168.558 362 166.05 362H158.889V338.999H166.05ZM166.05 359.525C169.02 359.525 171.286 358.744 172.848 357.182C174.41 355.598 175.191 353.387 175.191 350.549C175.191 347.689 174.399 345.456 172.815 343.85C171.253 342.244 168.998 341.441 166.05 341.441H161.892V359.525H166.05ZM185.224 341.441V349.13H193.606V351.605H185.224V359.525H194.596V362H182.221V338.966H194.596V341.441H185.224ZM231.268 339.164V362H228.265V344.972L220.675 362H218.563L210.94 344.939V362H207.937V339.164H211.171L219.619 358.04L228.067 339.164H231.268ZM249.957 356.885H239.925L238.077 362H234.909L243.225 339.131H246.69L254.973 362H251.805L249.957 356.885ZM249.099 354.443L244.941 342.827L240.783 354.443H249.099ZM265.891 362.231C264.373 362.231 263.009 361.967 261.799 361.439C260.611 360.889 259.676 360.141 258.994 359.195C258.312 358.227 257.96 357.116 257.938 355.862H261.139C261.249 356.94 261.689 357.853 262.459 358.601C263.251 359.327 264.395 359.69 265.891 359.69C267.321 359.69 268.443 359.338 269.257 358.634C270.093 357.908 270.511 356.984 270.511 355.862C270.511 354.982 270.269 354.267 269.785 353.717C269.301 353.167 268.696 352.749 267.97 352.463C267.244 352.177 266.265 351.869 265.033 351.539C263.515 351.143 262.294 350.747 261.37 350.351C260.468 349.955 259.687 349.339 259.027 348.503C258.389 347.645 258.07 346.501 258.07 345.071C258.07 343.817 258.389 342.706 259.027 341.738C259.665 340.77 260.556 340.022 261.7 339.494C262.866 338.966 264.197 338.702 265.693 338.702C267.849 338.702 269.609 339.241 270.973 340.319C272.359 341.397 273.14 342.827 273.316 344.609H270.016C269.906 343.729 269.444 342.959 268.63 342.299C267.816 341.617 266.738 341.276 265.396 341.276C264.142 341.276 263.119 341.606 262.327 342.266C261.535 342.904 261.139 343.806 261.139 344.972C261.139 345.808 261.37 346.49 261.832 347.018C262.316 347.546 262.899 347.953 263.581 348.239C264.285 348.503 265.264 348.811 266.518 349.163C268.036 349.581 269.257 349.999 270.181 350.417C271.105 350.813 271.897 351.44 272.557 352.298C273.217 353.134 273.547 354.278 273.547 355.73C273.547 356.852 273.25 357.908 272.656 358.898C272.062 359.888 271.182 360.691 270.016 361.307C268.85 361.923 267.475 362.231 265.891 362.231ZM291.562 356.885H281.53L279.682 362H276.514L284.83 339.131H288.295L296.578 362H293.41L291.562 356.885ZM290.704 354.443L286.546 342.827L282.388 354.443H290.704ZM332.331 339.164V362H329.328V344.972L321.738 362H319.626L312.003 344.939V362H309V339.164H312.234L320.682 358.04L329.13 339.164H332.331ZM351.02 356.885H340.988L339.14 362H335.972L344.288 339.131H347.753L356.036 362H352.868L351.02 356.885ZM350.162 354.443L346.004 342.827L341.846 354.443H350.162ZM366.821 338.999C369.329 338.999 371.496 339.472 373.322 340.418C375.17 341.342 376.578 342.673 377.546 344.411C378.536 346.149 379.031 348.195 379.031 350.549C379.031 352.903 378.536 354.949 377.546 356.687C376.578 358.403 375.17 359.723 373.322 360.647C371.496 361.549 369.329 362 366.821 362H359.66V338.999H366.821ZM366.821 359.525C369.791 359.525 372.057 358.744 373.619 357.182C375.181 355.598 375.962 353.387 375.962 350.549C375.962 347.689 375.17 345.456 373.586 343.85C372.024 342.244 369.769 341.441 366.821 341.441H362.663V359.525H366.821ZM395.103 362L389.625 352.595H385.995V362H382.992V338.999H390.417C392.155 338.999 393.618 339.296 394.806 339.89C396.016 340.484 396.918 341.287 397.512 342.299C398.106 343.311 398.403 344.466 398.403 345.764C398.403 347.348 397.941 348.745 397.017 349.955C396.115 351.165 394.751 351.968 392.925 352.364L398.7 362H395.103ZM385.995 350.186H390.417C392.045 350.186 393.266 349.79 394.08 348.998C394.894 348.184 395.301 347.106 395.301 345.764C395.301 344.4 394.894 343.344 394.08 342.596C393.288 341.848 392.067 341.474 390.417 341.474H385.995V350.186ZM406.072 341.441V349.13H414.454V351.605H406.072V359.525H415.444V362H403.069V338.966H415.444V341.441H406.072Z" fill="white"/>
</svg>
