<svg width="500" height="500" viewBox="0 0 500 500" fill="none" xmlns="http://www.w3.org/2000/svg">
<rect width="500" height="500" fill="#111111"/>
<path d="M191.483 312.071C175.978 310.523 162.85 299.961 158.255 285.336C156.776 280.628 156.319 277.462 156.319 271.936C156.319 262.625 158.572 255.07 163.459 248.001C174.032 232.707 195.486 227.222 213.243 235.273C220.452 238.542 227.593 245.469 231.245 252.736C232.563 255.359 234.008 259.548 234.723 262.816C235.574 266.707 235.574 277.166 234.723 281.056C232.946 289.181 229.264 295.923 223.646 301.339C215.261 309.422 203.675 313.288 191.483 312.071ZM202.523 302.61C207.346 301.652 212.256 299.065 215.799 295.616C221.988 289.591 224.923 281.922 224.923 271.776C224.923 263.476 222.801 256.745 218.37 250.986C212.661 243.566 202.714 239.624 192.53 240.744C185.198 241.551 179.623 244.299 174.812 249.476C171.196 253.369 168.717 258.219 167.622 263.549C165.032 276.151 168.206 288.215 176.079 295.693C180.763 300.142 186.153 302.477 193.563 303.266C195.372 303.458 199.934 303.124 202.523 302.61ZM275.003 312.063C270.127 311.622 265.261 310.119 261.487 307.89C259.225 306.553 255.197 302.613 253.617 300.188C252.023 297.744 250.628 294.394 249.803 291.025C249.143 288.332 249.121 287.495 249.009 260.336L248.893 232.416H254.01H259.127L259.238 259.856C259.349 287.063 259.356 287.318 260.061 289.856C261.028 293.339 262.115 295.454 263.99 297.506C267.376 301.21 271.327 302.804 277.723 303.046C282.534 303.228 285.463 302.707 288.766 301.081C292.971 299.012 295.861 295.308 297.323 290.117C298.019 287.643 298.028 287.327 298.128 260.016L298.23 232.416H303.336H308.443V259.24C308.443 282.442 308.373 286.471 307.927 289.08C305.874 301.097 298.096 309.111 286.203 311.463C282.541 312.187 278.666 312.395 275.003 312.063ZM90.5229 271.954V232.416L105.483 232.419C120.984 232.422 124.553 232.623 128.585 233.721C136.317 235.825 142.029 241.426 143.494 248.338C145.384 257.253 141.547 265.286 133.478 269.311L130.513 270.789L131.87 271.155C137.817 272.756 143.35 278.636 145.102 285.217C145.818 287.905 145.838 292.719 145.144 295.362C144.194 298.985 142.743 301.48 139.966 304.272C137.873 306.374 136.845 307.122 134.363 308.344C128.494 311.233 128.41 311.243 108.203 311.375L90.5229 311.492V271.954ZM121.488 302.832C125.31 302.462 128.14 301.505 130.459 299.798C133.979 297.207 135.481 293.663 135.268 288.453C135.161 285.824 134.996 285.063 134.133 283.225C132.43 279.592 129.089 277.013 124.443 275.741C122.649 275.25 120.888 275.17 111.643 275.154L100.923 275.137L100.839 288.736C100.793 296.216 100.825 302.516 100.909 302.736C101.095 303.22 116.724 303.293 121.488 302.832ZM123.963 265.954C129.693 264.23 132.938 260.387 133.314 254.879C133.788 247.931 130.032 242.964 123.209 241.518C121.64 241.186 118.422 241.066 110.923 241.062L100.763 241.056V253.882V266.708L111.563 266.572C119.945 266.466 122.721 266.328 123.963 265.954ZM325.723 271.936V232.416H330.843H335.963V267.776V303.136H349.883H363.803V307.296V311.456H344.763H325.723V271.936ZM374.683 271.936V232.416H395.963H417.243V236.574V240.731L401.163 240.814L385.083 240.897L384.999 254.097L384.915 267.297H399.318H413.722V271.617V275.937H399.318H384.915L384.998 289.457L385.082 302.977L401.162 303.06L417.242 303.143V307.3V311.457H395.962H374.682L374.683 271.936ZM58.0562 220.343C55.6879 219.741 54.3747 217.084 55.2963 214.757C56.1038 212.719 66.9156 200.951 75.6429 192.611C89.2604 179.598 97.8155 172.197 108.603 164.096C128.276 149.322 143.236 141.463 168.849 132.445C194.252 123.5 212.828 119.064 233.243 117.068C289.096 111.607 345.329 127.207 392.102 161.139C405.198 170.64 422.254 186.261 431.518 197.24C438.014 204.937 444.076 213.696 444.357 215.788C444.698 218.33 442.987 220.331 440.427 220.387C438.441 220.43 437.672 219.707 434.203 214.538C426.5 203.058 415.224 190.963 400.377 178.253C386.624 166.48 370.815 156.083 354.043 147.782C347.237 144.413 338.562 140.576 337.751 140.576C337.279 140.576 334.54 143.57 331.897 146.976C329.038 150.66 326.097 155.433 323.983 159.818C320.292 167.475 318.489 174.197 318.07 181.864C317.806 186.679 317.497 187.515 315.656 188.389C314.332 189.017 313.536 189.027 312.12 188.436C310.268 187.662 309.725 186.362 309.724 182.698C309.719 169.417 316.169 153.202 326.554 140.387L329.198 137.124L323.701 135.341C313.849 132.145 306.932 130.333 297.254 128.414C269.946 122.998 240.941 122.929 213.992 128.214L209.94 129.009L206.952 131.216C189.372 144.2 179.539 157.866 176.273 173.856C175.895 175.704 175.515 178.944 175.427 181.056C175.241 185.557 174.988 186.564 173.751 187.749C171.926 189.497 168.97 189.078 167.63 186.881C166.842 185.589 166.786 181.616 167.48 176.353C169.344 162.234 175.266 150.324 186.52 138.063L190.037 134.23L187.4 135.035C166.678 141.361 147.655 149.124 134.669 156.555C123.689 162.837 109.377 173.342 96.764 184.377C85.7598 194.003 72.0498 207.518 65.2028 215.489C61.1402 220.218 60.1672 220.879 58.0562 220.343Z" fill="white"/>
<path d="M106.391 354.566C106.391 356.546 105.742 358.141 104.444 359.351C103.146 360.561 101.199 361.166 98.603 361.166H93.95V371H91.64V347.933H98.603C101.177 347.933 103.113 348.538 104.411 349.748C105.731 350.958 106.391 352.564 106.391 354.566ZM98.603 359.186C102.211 359.186 104.015 357.646 104.015 354.566C104.015 353.026 103.586 351.86 102.728 351.068C101.87 350.276 100.495 349.88 98.603 349.88H93.95V359.186H98.603ZM123.632 365.522H113.138L111.125 371H108.683L117.098 348.23H119.705L128.087 371H125.645L123.632 365.522ZM122.939 363.608L118.385 351.134L113.831 363.608H122.939ZM149.185 371H146.875L134.104 351.596V371H131.794V347.933H134.104L146.875 367.304V347.933H149.185V371ZM170.304 347.933C172.856 347.933 175.045 348.395 176.871 349.319C178.697 350.243 180.094 351.574 181.062 353.312C182.03 355.05 182.514 357.118 182.514 359.516C182.514 361.892 182.03 363.949 181.062 365.687C180.094 367.403 178.697 368.723 176.871 369.647C175.045 370.549 172.856 371 170.304 371H163.473V347.933H170.304ZM170.304 369.086C173.516 369.086 175.958 368.25 177.63 366.578C179.324 364.884 180.171 362.53 180.171 359.516C180.171 356.48 179.324 354.115 177.63 352.421C175.958 350.705 173.516 349.847 170.304 349.847H165.783V369.086H170.304ZM189.083 349.814V358.427H197.828V360.341H189.083V369.086H198.818V371H186.773V347.9H198.818V349.814H189.083ZM234.964 348.23V371H232.654V352.817L224.536 371H222.853L214.735 352.883V371H212.425V348.23H214.867L223.678 367.964L232.489 348.23H234.964ZM253.569 365.522H243.075L241.062 371H238.62L247.035 348.23H249.642L258.024 371H255.582L253.569 365.522ZM252.876 363.608L248.322 351.134L243.768 363.608H252.876ZM268.728 371.231C267.21 371.231 265.868 370.967 264.702 370.439C263.558 369.911 262.656 369.174 261.996 368.228C261.336 367.282 260.984 366.226 260.94 365.06H263.382C263.492 366.182 263.987 367.172 264.867 368.03C265.747 368.866 267.034 369.284 268.728 369.284C270.29 369.284 271.522 368.888 272.424 368.096C273.348 367.282 273.81 366.259 273.81 365.027C273.81 364.037 273.557 363.245 273.051 362.651C272.545 362.035 271.918 361.584 271.17 361.298C270.422 360.99 269.388 360.66 268.068 360.308C266.528 359.89 265.307 359.483 264.405 359.087C263.503 358.691 262.733 358.075 262.095 357.239C261.457 356.403 261.138 355.27 261.138 353.84C261.138 352.652 261.446 351.596 262.062 350.672C262.678 349.726 263.547 348.989 264.669 348.461C265.791 347.933 267.078 347.669 268.53 347.669C270.664 347.669 272.38 348.197 273.678 349.253C274.998 350.287 275.757 351.629 275.955 353.279H273.447C273.293 352.333 272.776 351.497 271.896 350.771C271.016 350.023 269.828 349.649 268.332 349.649C266.946 349.649 265.791 350.023 264.867 350.771C263.943 351.497 263.481 352.498 263.481 353.774C263.481 354.742 263.734 355.523 264.24 356.117C264.746 356.711 265.373 357.162 266.121 357.47C266.891 357.778 267.925 358.108 269.223 358.46C270.719 358.878 271.929 359.296 272.853 359.714C273.777 360.11 274.558 360.726 275.196 361.562C275.834 362.398 276.153 363.52 276.153 364.928C276.153 366.006 275.867 367.029 275.295 367.997C274.723 368.965 273.876 369.746 272.754 370.34C271.632 370.934 270.29 371.231 268.728 371.231ZM293.982 365.522H283.488L281.475 371H279.033L287.448 348.23H290.055L298.437 371H295.995L293.982 365.522ZM293.289 363.608L288.735 351.134L284.181 363.608H293.289ZM333.739 348.23V371H331.429V352.817L323.311 371H321.628L313.51 352.883V371H311.2V348.23H313.642L322.453 367.964L331.264 348.23H333.739ZM352.344 365.522H341.85L339.837 371H337.395L345.81 348.23H348.417L356.799 371H354.357L352.344 365.522ZM351.651 363.608L347.097 351.134L342.543 363.608H351.651ZM367.337 347.933C369.889 347.933 372.078 348.395 373.904 349.319C375.73 350.243 377.127 351.574 378.095 353.312C379.063 355.05 379.547 357.118 379.547 359.516C379.547 361.892 379.063 363.949 378.095 365.687C377.127 367.403 375.73 368.723 373.904 369.647C372.078 370.549 369.889 371 367.337 371H360.506V347.933H367.337ZM367.337 369.086C370.549 369.086 372.991 368.25 374.663 366.578C376.357 364.884 377.204 362.53 377.204 359.516C377.204 356.48 376.357 354.115 374.663 352.421C372.991 350.705 370.549 349.847 367.337 349.847H362.816V369.086H367.337ZM396.082 371L390.373 361.364H386.116V371H383.806V347.933H390.736C393.31 347.933 395.257 348.549 396.577 349.781C397.919 351.013 398.59 352.63 398.59 354.632C398.59 356.304 398.106 357.734 397.138 358.922C396.192 360.088 394.784 360.847 392.914 361.199L398.854 371H396.082ZM386.116 359.483H390.769C392.573 359.483 393.926 359.043 394.828 358.163C395.752 357.283 396.214 356.106 396.214 354.632C396.214 353.114 395.774 351.948 394.894 351.134C394.014 350.298 392.628 349.88 390.736 349.88H386.116V359.483ZM405.484 349.814V358.427H414.229V360.341H405.484V369.086H415.219V371H403.174V347.9H415.219V349.814H405.484Z" fill="white"/>
</svg>
